<svg width="60" height="60" viewBox="0 0 60 60" fill="none" xmlns="http://www.w3.org/2000/svg">
<path d="M46.875 37.5C46.875 47.8559 40.3559 54.375 30 54.375C19.6441 54.375 13.125 47.8559 13.125 37.5C13.125 26.3871 25.2223 11.3848 28.9324 7.04532C29.0644 6.89114 29.2283 6.76737 29.4127 6.68251C29.597 6.59765 29.7976 6.55371 30.0006 6.55371C30.2036 6.55371 30.4041 6.59765 30.5885 6.68251C30.7729 6.76737 30.9367 6.89114 31.0687 7.04532C34.7777 11.3848 46.875 26.3871 46.875 37.5Z" stroke="#338BCB" stroke-width="3.75" stroke-miterlimit="10"/>
<path d="M40.3125 38.4375C40.3125 40.6753 39.4236 42.8214 37.8412 44.4037C36.2589 45.9861 34.1128 46.875 31.875 46.875" stroke="#338BCB" stroke-width="3.75" stroke-linecap="round" stroke-linejoin="round"/>
</svg>
