<svg width="60" height="60" viewBox="0 0 60 60" fill="none" xmlns="http://www.w3.org/2000/svg">
<path d="M30.0001 44.0274C30.6012 44.4281 31.2275 44.7897 31.8751 45.1102V54.375C31.8751 54.8723 31.6775 55.3492 31.3259 55.7008C30.9743 56.0525 30.4973 56.25 30.0001 56.25C29.5028 56.25 29.0259 56.0525 28.6742 55.7008C28.3226 55.3492 28.1251 54.8723 28.1251 54.375V45.1102C28.7726 44.7897 29.3989 44.4281 30.0001 44.0274ZM46.4297 14.6695C45.0734 11.4311 42.7902 8.66565 39.867 6.72075C36.9439 4.77585 33.5111 3.73822 30.0001 3.73822C26.489 3.73822 23.0562 4.77585 20.1331 6.72075C17.2099 8.66565 14.9267 11.4311 13.5704 14.6695C10.6412 16.0084 8.15832 18.1607 6.41733 20.8702C4.67634 23.5798 3.75052 26.7325 3.75005 29.9531C3.72662 38.9063 11.2501 46.6406 20.1891 46.875C22.9385 46.9404 25.6625 46.3346 28.1251 45.1102V36.7828L17.911 31.6781C17.4659 31.4556 17.1275 31.0654 16.9701 30.5933C16.8128 30.1213 16.8494 29.606 17.0719 29.161C17.2945 28.7159 17.6847 28.3775 18.1567 28.2201C18.6288 28.0627 19.1441 28.0994 19.5891 28.3219L28.1251 32.5922V20.625C28.1251 20.1277 28.3226 19.6508 28.6742 19.2992C29.0259 18.9476 29.5028 18.75 30.0001 18.75C30.4973 18.75 30.9743 18.9476 31.3259 19.2992C31.6775 19.6508 31.8751 20.1277 31.8751 20.625V26.9672L40.411 22.6969C40.6314 22.5867 40.8713 22.521 41.1171 22.5035C41.3628 22.4861 41.6096 22.5172 41.8434 22.5951C42.0771 22.673 42.2932 22.7962 42.4793 22.9576C42.6655 23.1191 42.818 23.3156 42.9282 23.536C43.0384 23.7563 43.1041 23.9962 43.1215 24.242C43.139 24.4878 43.1079 24.7346 43.03 24.9683C42.9521 25.2021 42.8289 25.4182 42.6674 25.6043C42.506 25.7904 42.3095 25.943 42.0891 26.0531L31.8751 31.1578V45.1102C34.2061 46.2674 36.7726 46.8713 39.3751 46.875H39.8016C48.7501 46.6406 56.2758 38.9063 56.2501 29.9531C56.2496 26.7325 55.3238 23.5798 53.5828 20.8702C51.8418 18.1607 49.3589 16.0084 46.4297 14.6695Z" fill="#1A70BF"/>
</svg>
