<svg width="40" height="40" viewBox="0 0 40 40" fill="none" xmlns="http://www.w3.org/2000/svg">
<path fill-rule="evenodd" clip-rule="evenodd" d="M15.7108 7.59673C9.43583 11.6267 5.94972 16.3176 5.2525 21.6692C4.16666 30.0001 11.6167 34.0776 15.3917 30.4142C19.1667 26.7509 16.9042 22.1001 14.1708 20.8284C11.4375 19.5567 9.76583 20.0001 10.0575 18.3009C10.3492 16.6017 14.2375 11.8926 17.6542 9.69923C17.7751 9.59616 17.8522 9.45091 17.8698 9.29302C17.8875 9.13513 17.8443 8.97644 17.7492 8.84923L16.9042 7.75006C16.5375 7.27339 16.1858 7.29172 15.7108 7.59589M32.2325 7.59673C25.9575 11.6267 22.4714 16.3176 21.7742 21.6692C20.6875 30.0001 28.1375 34.0776 31.9125 30.4142C35.6875 26.7509 33.425 22.1001 30.6908 20.8284C27.9567 19.5567 26.2858 20.0001 26.5775 18.3009C26.8692 16.6017 30.7583 11.8926 34.175 9.69923C34.2958 9.59604 34.3727 9.45074 34.3902 9.29285C34.4077 9.13497 34.3644 8.97634 34.2692 8.84923L33.425 7.75006C33.0583 7.27339 32.7067 7.29172 32.2325 7.59589" fill="#1A70BF"/>
</svg>
