<svg width="50" height="52" viewBox="0 0 50 52" fill="none" xmlns="http://www.w3.org/2000/svg">
<path fill-rule="evenodd" clip-rule="evenodd" d="M47.24 0H2.76C1.235 0 0 1.284 0 2.86951V49.1143C0 50.6998 1.235 51.9838 2.76 51.9838H26.705V31.8531H20.19V24.0087H26.705V18.2203C26.705 11.504 30.65 7.84955 36.4125 7.84955C39.1725 7.84955 41.5425 8.06269 42.235 8.15886V15.1767H38.24C35.105 15.1767 34.5 16.7258 34.5 18.9975V24.0061H41.9725L40.9975 31.8505H34.4975V51.9838H47.24C48.765 51.9838 50 50.6998 50 49.1143V2.86951C50 1.284 48.765 0 47.24 0Z" fill="#545454"/>
</svg>
