<svg width="60" height="60" viewBox="0 0 60 60" fill="none" xmlns="http://www.w3.org/2000/svg">
<path d="M30 28.75C28.3424 28.75 26.7527 28.0915 25.5806 26.9194C24.4085 25.7473 23.75 24.1576 23.75 22.5C23.75 20.8424 24.4085 19.2527 25.5806 18.0806C26.7527 16.9085 28.3424 16.25 30 16.25C31.6576 16.25 33.2473 16.9085 34.4194 18.0806C35.5915 19.2527 36.25 20.8424 36.25 22.5C36.25 23.3208 36.0883 24.1335 35.7742 24.8918C35.4602 25.6501 34.9998 26.3391 34.4194 26.9194C33.8391 27.4998 33.1501 27.9602 32.3918 28.2742C31.6335 28.5883 30.8208 28.75 30 28.75ZM30 5C25.3587 5 20.9075 6.84374 17.6256 10.1256C14.3437 13.4075 12.5 17.8587 12.5 22.5C12.5 35.625 30 55 30 55C30 55 47.5 35.625 47.5 22.5C47.5 17.8587 45.6563 13.4075 42.3744 10.1256C39.0925 6.84374 34.6413 5 30 5Z" fill="#545454"/>
</svg>
