<svg width="60" height="60" viewBox="0 0 60 60" fill="none" xmlns="http://www.w3.org/2000/svg">
<path d="M41.7656 32.1562C44.9062 29.0156 46.6406 24.832 46.6406 20.3906C46.6406 15.9434 44.9121 11.7656 41.7656 8.625C38.625 5.48437 34.4414 3.75 30 3.75C25.5586 3.75 21.375 5.47852 18.2344 8.625C15.0938 11.7715 13.3594 15.9434 13.3594 20.3906C13.3594 24.1289 14.584 27.6797 16.8398 30.5801C17.2676 31.1309 17.7305 31.6523 18.2285 32.1562C18.7266 32.6543 19.2539 33.1172 19.7988 33.5449C22.1191 35.3496 24.8555 36.498 27.7734 36.8848V43.125H21.0938C20.8359 43.125 20.625 43.3359 20.625 43.5938V47.1094C20.625 47.3672 20.8359 47.5781 21.0938 47.5781H27.7734V55.7812C27.7734 56.0391 27.9844 56.25 28.2422 56.25H31.7578C32.0156 56.25 32.2266 56.0391 32.2266 55.7812V47.5781H38.9062C39.1641 47.5781 39.375 47.3672 39.375 47.1094V43.5938C39.375 43.3359 39.1641 43.125 38.9062 43.125H32.2266V36.8848C35.8301 36.4043 39.1523 34.7695 41.7656 32.1562ZM30 32.5781C26.7422 32.5781 23.6895 31.3125 21.3809 29.0098C19.0781 26.707 17.8125 23.6484 17.8125 20.3906C17.8125 17.1328 19.0781 14.0801 21.3809 11.7715C23.6836 9.46289 26.7422 8.20312 30 8.20312C33.2578 8.20312 36.3105 9.46875 38.6191 11.7715C40.9219 14.0742 42.1875 17.1328 42.1875 20.3906C42.1875 23.6484 40.9219 26.7012 38.6191 29.0098C36.3105 31.3125 33.2578 32.5781 30 32.5781Z" fill="#1A70BF"/>
</svg>
