<svg width="60" height="60" viewBox="0 0 60 60" fill="none" xmlns="http://www.w3.org/2000/svg">
<path d="M44.75 43.475C44.1 41.475 42.225 40 40 40H37.5V32.5C37.5 31.837 37.2366 31.2011 36.7678 30.7322C36.2989 30.2634 35.663 30 35 30H20V25H25C25.663 25 26.2989 24.7366 26.7678 24.2678C27.2366 23.7989 27.5 23.163 27.5 22.5V17.5H32.5C33.8261 17.5 35.0979 16.9732 36.0355 16.0355C36.9732 15.0979 37.5 13.8261 37.5 12.5V11.475C40.4912 12.6809 43.1456 14.5937 45.2361 17.0496C47.3265 19.5055 48.7907 22.4314 49.5034 25.5768C50.216 28.7222 50.1558 31.9934 49.328 35.1105C48.5002 38.2276 46.9294 41.0976 44.75 43.475ZM27.5 49.825C17.625 48.6 10 40.2 10 30C10 28.45 10.2 26.95 10.525 25.525L22.5 37.5V40C22.5 41.3261 23.0268 42.5979 23.9645 43.5355C24.9021 44.4732 26.1739 45 27.5 45M30 5C26.717 5 23.4661 5.64664 20.4329 6.90301C17.3998 8.15938 14.6438 10.0009 12.3223 12.3223C7.63392 17.0107 5 23.3696 5 30C5 36.6304 7.63392 42.9893 12.3223 47.6777C14.6438 49.9991 17.3998 51.8406 20.4329 53.097C23.4661 54.3534 26.717 55 30 55C36.6304 55 42.9893 52.3661 47.6777 47.6777C52.3661 42.9893 55 36.6304 55 30C55 26.717 54.3534 23.4661 53.097 20.4329C51.8406 17.3998 49.9991 14.6438 47.6777 12.3223C45.3562 10.0009 42.6002 8.15938 39.5671 6.90301C36.5339 5.64664 33.283 5 30 5Z" fill="#1A70BF"/>
</svg>
