<svg width="60" height="60" viewBox="0 0 60 60" fill="none" xmlns="http://www.w3.org/2000/svg">
<path d="M56.25 33.75C56.2538 31.8725 55.7876 30.0238 54.894 28.3726C54.0003 26.7214 52.7076 25.3201 51.1337 24.2964C49.5598 23.2728 47.7547 22.6593 45.8829 22.512C44.0112 22.3646 42.1323 22.6881 40.4176 23.4528C38.7029 24.2176 37.2069 25.3994 36.0658 26.8904C34.9248 28.3814 34.1751 30.1343 33.8851 31.9893C33.595 33.8443 33.7739 35.7424 34.4053 37.5106C35.0367 39.2788 36.1006 40.8608 37.5 42.1125V56.25L45 52.7006L52.5 56.25V42.1125C53.6788 41.0613 54.6222 39.773 55.2684 38.3319C55.9147 36.8908 56.2492 35.3294 56.25 33.75ZM48.75 50.325L45 48.5494L41.25 50.325V44.3438C43.6737 45.2171 46.3263 45.2171 48.75 44.3438V50.325ZM45 41.25C43.5166 41.25 42.0666 40.8101 40.8332 39.986C39.5999 39.1619 38.6386 37.9906 38.0709 36.6201C37.5032 35.2497 37.3547 33.7417 37.6441 32.2868C37.9335 30.832 38.6478 29.4956 39.6967 28.4467C40.7456 27.3978 42.082 26.6835 43.5368 26.3941C44.9917 26.1047 46.4997 26.2532 47.8701 26.8209C49.2406 27.3886 50.4119 28.3499 51.236 29.5832C52.0601 30.8166 52.5 32.2666 52.5 33.75C52.4975 35.7384 51.7065 37.6446 50.3006 39.0506C48.8946 40.4565 46.9884 41.2475 45 41.25ZM16.875 26.25H30V30H16.875V26.25ZM16.875 15H35.625V18.75H16.875V15Z" fill="#1A70BF"/>
<path d="M11.25 56.25C10.2554 56.25 9.30161 55.8549 8.59835 55.1516C7.89509 54.4484 7.5 53.4946 7.5 52.5V7.5C7.5 6.50544 7.89509 5.55161 8.59835 4.84835C9.30161 4.14509 10.2554 3.75 11.25 3.75H41.25C42.2446 3.75 43.1984 4.14509 43.9016 4.84835C44.6049 5.55161 45 6.50544 45 7.5V15H41.25V7.5H11.25V52.5H30V56.25H11.25Z" fill="#1A70BF"/>
</svg>
