<svg width="60" height="60" viewBox="0 0 60 60" fill="none" xmlns="http://www.w3.org/2000/svg">
<g clip-path="url(#clip0_105_349)">
<path d="M29.8423 9.42438C24.6751 9.42438 20.4863 14.3149 20.4863 20.3476C20.4863 24.5315 22.5012 28.1652 25.4598 30L22.0289 31.59L12.899 35.8244C12.017 36.2655 11.5768 37.0133 11.5768 38.0718V48.1269C11.6493 49.384 12.4036 50.5557 13.6266 50.5756H46.1076C47.5038 50.4542 48.2101 49.3296 48.2238 48.1269V38.0718C48.2238 37.0133 47.7836 36.2655 46.9017 35.8244L38.1022 31.59L34.4453 29.8575C37.2825 27.9815 39.1984 24.4263 39.1984 20.3477C39.1984 14.3149 35.0095 9.42438 29.8423 9.42438ZM14.7512 13.2656C12.5275 13.35 10.7652 14.3122 9.4263 15.8454C7.9453 17.6913 7.2233 19.8829 7.20935 22.0631C7.3003 25.287 8.7428 28.339 11.3108 29.9354L1.05815 34.6998C0.3525 34.9644 0 35.5818 0 36.552V44.6219C0.0551 45.6922 0.6108 46.5917 1.65275 46.6071H8.46695V38.0718C8.5797 35.7898 9.6513 33.9453 11.5768 33.0452L18.3891 29.8044C18.9183 29.4956 19.4257 29.076 19.9108 28.5468C17.102 24.213 16.7119 19.0222 18.5221 14.4567C17.3447 13.7362 16.0216 13.2731 14.7512 13.2656ZM45.1805 13.2656C43.7263 13.296 42.3825 13.8315 41.2785 14.5878C43.0394 19.1946 42.5537 24.3886 39.9544 28.4138C40.5278 29.0753 41.1246 29.5826 41.7421 29.9355L48.2903 33.0452C50.2852 34.1393 51.3138 36.0001 51.3336 38.0718V46.6072H58.3453C59.4985 46.5076 59.99 45.5878 60 44.622V36.5521C60 35.67 59.6475 35.0527 58.9419 34.6998L48.8203 29.8689C51.4452 27.9335 52.7633 25.0329 52.7888 22.0631C52.719 19.7125 52.0009 17.5299 50.5718 15.8454C49.0785 14.2254 47.2263 13.2827 45.1805 13.2656Z" fill="#1A70BF"/>
</g>
<defs>
<clipPath id="clip0_105_349">
<rect width="60" height="60" fill="white"/>
</clipPath>
</defs>
</svg>
