<svg width="60" height="60" viewBox="0 0 60 60" fill="none" xmlns="http://www.w3.org/2000/svg">
<path d="M11.5247 1.95561C9.33891 5.13104 8.02711 8.08709 7.67578 10.4953L10.481 15.084L13.8354 11.1617C13.9371 8.67584 13.192 5.4574 11.5247 1.95514V1.95561ZM55.3711 2.29979C52.0359 4.22518 49.5834 6.32811 48.2299 8.34959L48.7866 13.7037L53.5035 11.6015C54.6625 9.40112 55.3712 6.17694 55.3712 2.29979H55.3711ZM44.6191 5.49666C43.4293 7.96182 42.6504 10.2826 42.2571 12.3303L44.4104 19.0904L46.7284 15.0767L45.9667 7.78533H45.9702C45.5512 7.00432 45.1005 6.24079 44.619 5.49666H44.6191ZM3.19336 9.46662C3.17871 12.2046 3.47379 14.6348 3.99902 16.6519L8.84766 21.8262L9.21387 17.2083L5.39062 10.9535L5.39414 10.9497C4.68085 10.4259 3.94665 9.93116 3.19336 9.46662ZM18.761 10.7008C17.7749 11.1115 16.852 11.5461 15.9961 12.0009L11.3965 17.388L11.0339 22.0022L16.9446 17.4208C17.7312 15.5571 18.3614 13.2885 18.761 10.7008ZM39.529 13.2351C36.7137 20.0426 37.6352 24.7031 40.4516 25.95L42.9309 21.658L40.6348 14.4582C40.2766 14.0411 39.9078 13.6332 39.5287 13.235L39.529 13.2351ZM56.6419 13.2607C56.1087 13.2574 55.5907 13.2705 55.0856 13.2935L48.6252 16.1719L46.3072 20.189L53.613 18.5888C55.1244 17.2447 56.6705 15.4686 58.143 13.3044C57.6323 13.2791 57.1305 13.2636 56.6416 13.2606L56.6419 13.2607ZM30.1465 14.2826C27.423 17.0058 25.5959 19.6735 24.8109 21.9765L26.737 27.0047L30.7472 23.7527C31.2974 21.3265 31.1498 18.0274 30.1465 14.2826ZM1.92258 18.6398C2.30695 25.9957 5.14312 29.809 8.22141 29.7251L8.61328 24.7774L3.44965 19.2696C2.94605 19.0468 2.43678 18.8369 1.92258 18.6398ZM18.7062 19.9728C17.9775 20.1257 17.2544 20.3041 16.5382 20.5076L10.7995 24.9534L10.4114 29.846C13.5159 30.7261 17.1098 27.4358 18.7059 19.973L18.7062 19.9728ZM20.5882 20.156C20.0773 22.8437 19.9261 25.2844 20.0756 27.363L23.9062 33.3396L25.1039 28.8644L22.4781 22.0163H22.4816C21.8762 21.3707 21.2446 20.75 20.5884 20.156H20.5882ZM51.9251 21.2034L44.8279 22.7524L42.3744 27.0005C44.7981 29.1327 49.457 27.7077 54.1078 21.6538C53.3856 21.4785 52.6576 21.3283 51.9251 21.2034ZM35.6726 24.1952C34.6282 24.4202 33.6448 24.6827 32.721 24.9753L27.2167 29.432L26.019 33.9074L32.6624 30.4758C33.7748 28.7855 34.8096 26.6683 35.6725 24.1953L35.6726 24.1952ZM53.8513 27.1323C50.822 29.514 48.6896 31.944 47.6368 34.138L48.9517 39.3566L53.3204 36.6062C54.1555 34.2636 54.4028 30.9708 53.8513 27.1323ZM39.3971 28.1395C35.3618 37.2301 32.4369 46.7794 32.0178 57.7915H34.2116C34.6286 47.1518 37.4428 37.9366 41.3966 29.0294L39.397 28.1394L39.3971 28.1395ZM17.6735 28.9488C16.7157 36.2551 18.8119 40.5167 21.8556 40.9898L23.1411 36.1999L19.0614 29.8425C18.6063 29.533 18.1435 29.2351 17.6734 28.9489L17.6735 28.9488ZM43.6598 31.8237C42.8333 34.4303 42.3922 36.8358 42.2938 38.9172L45.3882 45.315L47.1094 41.0117L45.3187 33.9H45.3258C44.8219 33.2147 44.2672 32.5219 43.6597 31.8238L43.6598 31.8237ZM8.21414 32.0032C7.19883 40.7435 7.2614 49.3276 9.64242 57.7917H11.9205C9.47402 49.4981 9.37008 41.0315 10.3896 32.2558L8.21437 32.0032H8.21414ZM33.9333 33.3033C33.1583 33.322 32.4154 33.3665 31.703 33.4351L25.2539 36.7711L23.9831 41.5064C26.8765 42.9396 31.0071 40.3556 33.933 33.3033H33.9333ZM58.158 37.6318C57.0949 37.7307 56.088 37.8723 55.137 38.053L49.1421 41.8284L47.4209 46.1242L54.4228 43.5094C55.7283 41.9633 57.0073 39.9849 58.158 37.6318ZM39.7233 40.2099C37.9036 47.3511 39.4777 51.8338 42.444 52.6646L44.2862 48.0615L40.9939 41.2611C40.592 40.9096 40.1675 40.5597 39.7233 40.2099ZM21.4746 43.2094C19.9894 48.0414 18.866 52.8828 18.3288 57.7917H20.5335C21.0616 53.1368 22.1378 48.5069 23.5692 43.8499L21.4745 43.2092L21.4746 43.2094ZM53.1152 46.333L46.3184 48.8746L44.4946 53.4302C47.1964 55.1995 51.6047 53.1248 55.3491 46.4685C54.6063 46.3973 53.8612 46.3522 53.1152 46.3331V46.333ZM41.7773 54.9644C41.5577 55.8683 41.4041 56.811 41.3489 57.7917H43.5388C43.5915 57.0082 43.7204 56.2441 43.9051 55.4846L41.7775 54.9643L41.7773 54.9644Z" fill="#1A70BF"/>
</svg>
