<svg width="50" height="50" viewBox="0 0 50 50" fill="none" xmlns="http://www.w3.org/2000/svg">
<path d="M42.625 7.27513C40.3327 4.9604 37.6026 3.12505 34.5938 1.87604C31.585 0.627031 28.3577 -0.0106579 25.1 0.000134738C11.45 0.000134738 0.325 11.1251 0.325 24.7751C0.325 29.1501 1.475 33.4001 3.625 37.1501L0.125 50.0001L13.25 46.5501C16.875 48.5251 20.95 49.5751 25.1 49.5751C38.75 49.5751 49.875 38.4501 49.875 24.8001C49.875 18.1751 47.3 11.9501 42.625 7.27513ZM25.1 45.3751C21.4 45.3751 17.775 44.3751 14.6 42.5001L13.85 42.0501L6.05 44.1001L8.125 36.5001L7.625 35.7251C5.56887 32.4428 4.47731 28.6483 4.475 24.7751C4.475 13.4251 13.725 4.17513 25.075 4.17513C30.575 4.17513 35.75 6.32514 39.625 10.2251C41.544 12.1348 43.0648 14.4065 44.0991 16.9085C45.1333 19.4104 45.6605 22.0928 45.65 24.8001C45.7 36.1501 36.45 45.3751 25.1 45.3751ZM36.4 29.9751C35.775 29.6751 32.725 28.1751 32.175 27.9501C31.6 27.7501 31.2 27.6501 30.775 28.2501C30.35 28.8751 29.175 30.2751 28.825 30.6751C28.475 31.1001 28.1 31.1501 27.475 30.8251C26.85 30.5251 24.85 29.8501 22.5 27.7501C20.65 26.1001 19.425 24.0751 19.05 23.4501C18.7 22.8251 19 22.5001 19.325 22.1751C19.6 21.9001 19.95 21.4501 20.25 21.1001C20.55 20.7501 20.675 20.4751 20.875 20.0751C21.075 19.6501 20.975 19.3001 20.825 19.0001C20.675 18.7001 19.425 15.6501 18.925 14.4001C18.425 13.2001 17.9 13.3501 17.525 13.3251H16.325C15.9 13.3251 15.25 13.4751 14.675 14.1001C14.125 14.7251 12.525 16.2251 12.525 19.2751C12.525 22.3251 14.75 25.2751 15.05 25.6751C15.35 26.1001 19.425 32.3501 25.625 35.0251C27.1 35.6751 28.25 36.0501 29.15 36.3251C30.625 36.8001 31.975 36.7251 33.05 36.5751C34.25 36.4001 36.725 35.0751 37.225 33.6251C37.75 32.1751 37.75 30.9501 37.575 30.6751C37.4 30.4001 37.025 30.2751 36.4 29.9751Z" fill="#545454"/>
</svg>
