<svg width="50" height="50" viewBox="0 0 50 50" fill="none" xmlns="http://www.w3.org/2000/svg">
<path d="M35.0417 43.2667L7.81875 8.26667C7.67527 8.0819 7.58651 7.86057 7.56259 7.62785C7.53866 7.39514 7.58052 7.16038 7.6834 6.95028C7.78628 6.74018 7.94605 6.56316 8.14455 6.43936C8.34305 6.31557 8.57231 6.24996 8.80625 6.25H13.9729C14.1631 6.25028 14.3507 6.29397 14.5215 6.37773C14.6923 6.46148 14.8417 6.58311 14.9583 6.73333L42.1813 41.7333C42.3247 41.9181 42.4135 42.1394 42.4374 42.3721C42.4613 42.6049 42.4195 42.8396 42.3166 43.0497C42.2137 43.2598 42.054 43.4368 41.8555 43.5606C41.657 43.6844 41.4277 43.75 41.1938 43.75H36.0271C35.8369 43.7497 35.6493 43.706 35.4785 43.6223C35.3077 43.5385 35.1583 43.4169 35.0417 43.2667Z" stroke="#545454" stroke-width="3.75"/>
<path d="M41.6667 6.25L8.33333 43.75" stroke="#545454" stroke-width="3.75" stroke-linecap="round"/>
</svg>
